<svg data-v-423bf9ae="" xmlns="http://www.w3.org/2000/svg" viewBox="0 0 364 90" class="iconLeft"><!----><!----><!----><g data-v-423bf9ae="" id="65dc676f-da25-4221-be3c-c2dd0660026f" fill="white" transform="matrix(4.415010929107666,0,0,4.415010929107666,89.13644409179688,1.4459182024002075)"><path d="M12.17 3.92L8.33 3.92L6.69 11.13L5.05 3.92L1.12 3.92L1.12 13.58L3.64 13.58L3.64 9.52C3.64 8.68 3.64 7.43 3.61 6.45C3.77 7.43 4.05 8.68 4.27 9.52L5.35 13.58L7.94 13.58L9.00 9.52C9.23 8.67 9.51 7.43 9.67 6.45C9.65 7.43 9.65 8.68 9.65 9.52L9.65 13.58L12.17 13.58ZM21.55 6.10L18.79 6.10L17.26 11.58L15.72 6.10L12.92 6.10L16.02 13.92L15.92 14.13C15.68 14.66 15.27 14.85 14.69 14.85C14.43 14.85 14.21 14.85 14 14.83L14 16.45C14.36 16.51 14.66 16.52 15.06 16.52C16.84 16.52 17.65 15.95 18.59 13.58ZM25.07 5.88L29.82 5.88L29.82 3.92L22.55 3.92L22.55 13.58L25.07 13.58L25.07 9.72L29.40 9.72L29.40 7.76L25.07 7.76ZM33.26 3.29L30.74 3.29L30.74 10.93C30.74 11.49 30.74 11.87 30.77 12.26C30.83 13.26 31.49 13.72 32.65 13.72C33.21 13.72 33.66 13.69 34.12 13.65L34.12 11.94C33.46 11.97 33.33 11.87 33.29 11.58C33.26 11.40 33.26 11.24 33.26 10.89ZM36.33 3.07C35.55 3.07 35.03 3.54 35.03 4.30C35.03 5.05 35.55 5.53 36.33 5.53C37.11 5.53 37.63 5.05 37.63 4.30C37.63 3.54 37.11 3.07 36.33 3.07ZM37.59 13.58L37.59 6.10L35.07 6.10L35.07 13.58ZM46.96 6.10L44.44 6.10L44.44 7.07L43.95 6.27C43.57 6.05 42.84 5.91 42.22 5.91C40.31 5.91 38.68 7.24 38.68 9.90C38.68 12.11 40.08 13.50 42.11 13.50C42.87 13.50 43.46 13.34 43.88 13.03L44.44 12.21L44.44 12.42C44.44 12.82 44.42 13.17 44.41 13.40C44.34 14.41 43.65 14.81 42.71 14.81C41.93 14.81 41.36 14.53 41.30 14.04L41.29 13.90L38.85 13.90L38.86 14.04C39.05 15.75 40.40 16.66 42.64 16.66C45.18 16.66 46.86 15.57 46.94 13.12C46.96 12.71 46.96 12.14 46.96 11.68ZM42.84 11.79C41.96 11.79 41.26 11.12 41.26 9.72C41.26 8.19 41.93 7.62 42.91 7.62C43.67 7.62 44.44 8.12 44.44 9.62L44.44 9.66C44.44 11.23 43.76 11.79 42.84 11.79ZM55.99 7.94C55.79 6.64 54.88 5.91 53.34 5.91C52.65 5.91 52.12 6.06 51.66 6.34L50.99 7.27L50.99 3.22L48.47 3.22L48.47 13.58L50.99 13.58L50.99 10.05C50.99 8.36 51.53 7.62 52.30 7.62C53.06 7.62 53.45 8.04 53.51 8.75C53.54 9.13 53.54 9.53 53.54 9.77L53.54 13.58L56.06 13.58L56.06 9.35C56.06 8.75 56.04 8.32 55.99 7.94ZM60.51 7.73L62.16 7.73L62.16 6.16L60.51 6.16L60.51 4.23L57.99 4.23L57.99 6.16L56.80 6.16L56.80 7.73L57.99 7.73L57.99 10.85C57.99 11.27 57.99 11.62 58.02 12.05C58.10 13.20 58.66 13.78 60.52 13.78C61.05 13.78 61.52 13.73 62.01 13.65L62.01 12.08C60.82 12.14 60.58 11.97 60.52 11.21C60.51 11.02 60.51 10.74 60.51 10.49Z"></path></g><!----><g data-v-423bf9ae="" id="87521cbf-db79-4a6f-8b27-3037bd97081d" transform="matrix(2.8125,0,0,2.8125,-7.1699981689453125,0)" stroke="none" fill="white"><path d="M2.83 18.247l26.34-9.124L2.83 0zM29.17 32V13.753L2.83 22.877z"></path></g><!----></svg>